<?xml version="1.0" encoding="UTF-8"?>
<svg version="1.1" xmlns="http://www.w3.org/2000/svg" width="1254" height="1254">
<path d="M0 0 C413.82 0 827.64 0 1254 0 C1254 413.82 1254 827.64 1254 1254 C840.18 1254 426.36 1254 0 1254 C0 840.18 0 426.36 0 0 Z " fill="#FEFDFD" transform="translate(0,0)"/>
<path d="M0 0 C0.92388513 -0.00367669 1.84777027 -0.00735338 2.79965192 -0.01114148 C5.90870194 -0.02219215 9.01771855 -0.02602451 12.12678528 -0.02983093 C14.35067349 -0.03609454 16.57456065 -0.04274125 18.79844666 -0.04974365 C24.85026241 -0.06716291 30.90207025 -0.07770797 36.95390487 -0.08594918 C40.73384155 -0.09109743 44.51377577 -0.09717324 48.29371071 -0.10346031 C58.76198462 -0.12033101 69.23025738 -0.13496571 79.69854259 -0.14220905 C82.41469512 -0.1441189 85.13084763 -0.14603924 87.84700012 -0.147995 C88.85961197 -0.14872061 88.85961197 -0.14872061 89.89268062 -0.14946087 C100.82526731 -0.15775887 111.7577445 -0.18309203 122.69028338 -0.21557567 C133.91821966 -0.24866461 145.1461024 -0.26632684 156.37409383 -0.26985329 C162.67668644 -0.27220529 168.979106 -0.28118548 175.28165245 -0.30631447 C181.21190699 -0.32957673 187.14187431 -0.33383566 193.07216263 -0.32355309 C195.24737948 -0.32305717 197.42261038 -0.32939395 199.59778404 -0.34310913 C202.5707419 -0.36080395 205.5426663 -0.3537333 208.515625 -0.34057617 C209.37352117 -0.35154542 210.23141734 -0.36251466 211.11531037 -0.37381631 C220.64793509 -0.27217925 226.43397081 3.89449783 232.92602539 10.51690674 C233.56636713 11.15383078 234.20670887 11.79075482 234.8664549 12.44697958 C236.99538919 14.56936066 239.10977139 16.70565297 241.22444153 18.84223938 C242.7535756 20.37250253 244.28359258 21.90188387 245.81442261 23.43045044 C249.95951973 27.57440136 254.09217812 31.73055877 258.2227037 35.88902736 C262.55068139 40.24205562 266.89003283 44.5837158 271.22817993 48.92660522 C279.44296476 57.1538172 287.64750443 65.39116783 295.84839946 73.63222271 C305.16637217 82.99484165 314.49564361 92.34616678 323.82591856 101.69652355 C339.77343996 117.67876754 355.71243976 133.66946891 371.64207458 149.66954041 C372.31433289 150.34475709 372.9865912 151.01997378 373.67922097 151.71565157 C374.91426112 152.95617515 376.14924456 154.19675518 377.38415593 155.43740696 C379.86664153 157.93105856 382.3509439 160.42279195 384.83925343 162.91063786 C386.339075 164.41080486 387.83306386 165.91682437 389.32136536 167.42842102 C394.15616996 172.34352063 394.15616996 172.34352063 399.32527161 176.89717102 C411.94071692 187.218899 411.94071692 187.218899 413.07527161 194.14717102 C413.171623 196.4470259 413.20977097 198.74950635 413.21507931 201.05137253 C413.21950644 202.09811537 413.21950644 202.09811537 413.22402301 203.16600454 C413.23271893 205.51583762 413.2342951 207.8656215 413.23590088 210.21546936 C413.2406315 211.91263898 413.24578237 213.60980747 413.25131851 215.30697465 C413.26523256 219.97993818 413.27281042 224.65289392 413.27929151 229.3258729 C413.28566067 233.33162785 413.29573094 237.33737 413.30585217 241.34311697 C413.33917943 254.53968683 413.36069625 267.73626449 413.37905201 280.93286264 C413.38384658 284.36809045 413.38882993 287.80331794 413.39385724 291.23854542 C413.42482373 312.56421986 413.4515128 333.889897 413.46827602 355.21558762 C413.4722256 360.15534724 413.47622859 365.09510681 413.4803009 370.03486633 C413.48130926 371.26263913 413.48231763 372.49041193 413.48335654 373.75538996 C413.50037104 393.65376119 413.54148945 413.55200822 413.59232389 433.45031878 C413.64406724 453.87206779 413.67321379 474.29375286 413.68047291 494.71556687 C413.68513885 506.18475783 413.69992913 517.65374527 413.74021721 529.1228714 C413.7744791 538.88836438 413.78847198 548.65361712 413.77579307 558.41916677 C413.76995755 563.40253623 413.77389314 568.38539734 413.80396271 573.36869049 C413.83126857 577.93114277 413.83086949 582.49272419 413.80845226 587.05519536 C413.80522229 588.70528735 413.8121387 590.35543706 413.83024948 592.00543281 C413.98734676 607.24205965 413.98734676 607.24205965 408.82112372 612.75102741 C403.74047267 616.81398238 398.91465295 617.52354293 392.56771851 617.54830933 C391.84459329 617.555106 391.12146808 617.56190266 390.37642998 617.56890529 C387.97063754 617.58778758 385.56535811 617.5854464 383.15950012 617.58296204 C381.42762096 617.59194505 379.69574778 617.60215454 377.96388245 617.61349487 C373.2717284 617.63994012 368.57973859 617.64702591 363.88751721 617.64894223 C360.95380216 617.65107754 358.0201286 617.65748759 355.08642387 617.66543388 C344.84561902 617.69316658 334.60493113 617.70544167 324.36408997 617.70307922 C314.82711351 617.70127625 305.29064578 617.73295034 295.75379807 617.78031021 C287.55654784 617.81956313 279.35946376 617.83562988 271.16212028 617.833713 C266.2701759 617.83294897 261.3786841 617.84145107 256.48683357 617.87324715 C251.88598322 617.90233743 247.28601679 617.90249757 242.68513489 617.88069725 C241.00012861 617.87756568 239.31506683 617.88461352 237.63015556 617.90277863 C222.29652463 618.05734105 222.29652463 618.05734105 216.51899624 612.92233181 C212.42061525 607.88308467 211.6417015 604.03973012 211.7010498 597.61386108 C211.6970754 596.75627636 211.69310099 595.89869163 211.68900615 595.01511949 C211.67938413 592.14238258 211.69120079 589.27013824 211.70295715 586.39741516 C211.70052914 584.33747168 211.69680973 582.27752938 211.69189453 580.21759033 C211.68248264 574.62255783 211.69191389 569.02770018 211.70522666 563.43268132 C211.71653735 557.57916437 211.7124339 551.72565608 211.71047974 545.87213135 C211.70959657 536.04068646 211.7206813 526.20931049 211.73908997 516.37788391 C211.76025202 505.01087748 211.76376883 493.64397208 211.75752801 482.27694994 C211.75183306 471.34460749 211.75748195 460.41230062 211.76870155 449.4799633 C211.7733464 444.82659179 211.77422187 440.17324205 211.77211571 435.51986885 C211.77023194 430.0394216 211.77834368 424.55907715 211.7941761 419.07865334 C211.79841845 417.06708959 211.79926984 415.05551542 211.7964859 413.04394913 C211.79326259 410.29834149 211.80234986 407.55304069 211.8145752 404.8074646 C211.81079587 404.0112531 211.80701655 403.21504161 211.8031227 402.39470249 C211.89365738 390.90165277 217.74609527 384.17139718 225.5796051 376.40232849 C226.71791743 375.26145289 226.71791743 375.26145289 227.87922597 374.09752929 C230.41868894 371.55477683 232.96522523 369.01923023 235.51179504 366.4835968 C237.33545157 364.6605045 239.15866765 362.83697152 240.98147583 361.01303101 C244.90420054 357.08925921 248.8305612 353.16915671 252.75943756 349.25154495 C258.43987811 343.58738034 264.11476726 337.9176804 269.78833047 332.24662803 C278.99416317 323.04516914 288.20445038 313.84818253 297.41755676 304.65400696 C306.36554185 295.72438878 315.31141734 286.79266583 324.25447083 277.85810852 C324.80601411 277.30709068 325.3575574 276.75607284 325.92581412 276.18835749 C328.69281918 273.42396256 331.4597829 270.65952625 334.22672606 267.89506936 C357.16983454 244.97268362 380.12017926 222.05755589 403.07527161 199.14717102 C402.21076181 199.14657393 401.34625201 199.14597684 400.45554495 199.14536166 C349.23334668 199.10947848 298.01120719 199.05285608 246.78906342 198.96925007 C240.64065129 198.95923245 234.49223888 198.94938834 228.34382629 198.93965149 C227.11977272 198.93771012 225.89571915 198.93576874 224.63457304 198.93376854 C204.80714364 198.90273578 184.97972581 198.88576432 165.15227669 198.8739768 C144.81198178 198.86157186 124.4717477 198.83408529 104.13149118 198.79255795 C91.57745988 198.76740379 79.02352945 198.75405515 66.46947259 198.75574145 C57.86415683 198.75577117 49.25894392 198.74116977 40.65366822 198.71500674 C35.68665928 198.70033913 30.71986127 198.69217644 25.75283432 198.70136833 C21.20514741 198.7096419 16.65788471 198.69953713 12.11026078 198.6748344 C10.46545498 198.66914037 8.8206091 198.67018231 7.17581528 198.67865857 C-10.25159816 198.76077093 -10.25159816 198.76077093 -16.76457214 192.33076477 C-17.12679871 191.75455383 -17.48902527 191.1783429 -17.86222839 190.58467102 C-18.24250183 190.00588196 -18.62277527 189.4270929 -19.01457214 188.83076477 C-21.10545043 184.96308862 -21.05489891 181.65272318 -21.06517029 177.33496094 C-21.06814141 176.6383436 -21.07111253 175.94172627 -21.07417369 175.22399932 C-21.08286181 172.8841688 -21.08436903 170.54438945 -21.08586121 168.20454407 C-21.0904893 166.52912791 -21.09551395 164.85371282 -21.10090637 163.17829895 C-21.1140332 158.62243431 -21.12047588 154.0665844 -21.12491703 149.5107038 C-21.12784729 146.66481627 -21.13195201 143.81893276 -21.1364212 140.97304726 C-21.15009686 132.07019688 -21.15976319 123.16735571 -21.16362309 114.26449555 C-21.16810421 103.98508557 -21.18565428 93.70580854 -21.21462369 83.42643899 C-21.23623505 75.48239865 -21.24632708 67.53839574 -21.24766421 59.59432632 C-21.24871263 54.84895171 -21.25462823 50.10370206 -21.27248383 45.35835838 C-21.28895507 40.8940337 -21.29112463 36.42992803 -21.28234482 31.9655838 C-21.28157394 30.32812476 -21.28592391 28.69065399 -21.29580307 27.05322456 C-21.30851189 24.815333 -21.30265216 22.57821841 -21.29222107 20.34033203 C-21.29368763 19.08874644 -21.29515419 17.83716085 -21.29666519 16.54764843 C-20.7307582 11.3737749 -18.65059323 7.43439981 -14.92472839 3.83467102 C-14.42972839 3.34353821 -13.93472839 2.8524054 -13.42472839 2.34638977 C-9.55861651 -0.74448614 -4.67645818 -0.00099208 0 0 Z " fill="#AC9CD0" transform="translate(316.9247283935547,333.8528289794922)"/>
<path d="M0 0 C0.86068061 -0.00445784 1.72136122 -0.00891569 2.60812306 -0.01350862 C3.55926889 -0.01332426 4.51041472 -0.01313989 5.49038315 -0.01294994 C6.99955248 -0.01846498 6.99955248 -0.01846498 8.53921008 -0.02409142 C11.93242437 -0.03516159 15.32560807 -0.03897773 18.71883774 -0.04278088 C21.14286523 -0.04904298 23.56689175 -0.05568955 25.99091721 -0.0626936 C33.28123671 -0.08194578 40.5715537 -0.09252548 47.86189091 -0.10142139 C51.29401244 -0.10580312 54.72613241 -0.11117024 58.15825272 -0.11641026 C69.56582062 -0.13342373 80.97338755 -0.14791809 92.38096619 -0.155159 C95.3420601 -0.15706893 98.30315401 -0.15898926 101.26424789 -0.16094494 C102.00022488 -0.16142868 102.73620186 -0.16191242 103.49448118 -0.16241082 C115.41785672 -0.17071179 127.34113196 -0.19604927 139.26446369 -0.22852562 C151.50259231 -0.26158793 163.74066993 -0.27960702 175.97884345 -0.28280324 C182.85146919 -0.28496916 189.72394867 -0.29372965 196.59653091 -0.31926441 C203.06105781 -0.34322737 209.52539281 -0.34680225 215.98995781 -0.33650303 C218.36435763 -0.33600611 220.73877015 -0.3423721 223.11313057 -0.35605907 C226.35174873 -0.37368532 229.58941171 -0.36671685 232.82802963 -0.35352612 C233.77025257 -0.36449536 234.71247551 -0.37546461 235.68325067 -0.38676625 C241.26802861 -0.33175335 244.49503847 0.38495656 248.91317368 4.13422108 C252.37333486 8.06197161 254.03865239 10.35881648 254.0362215 15.56577206 C254.03821255 16.50330417 254.0402036 17.44083628 254.04225498 18.40677845 C254.03934214 19.44372692 254.0364293 20.48067538 254.03342819 21.54904652 C254.03470983 23.19319784 254.03470983 23.19319784 254.03601736 24.87056434 C254.03767325 28.56800396 254.03214898 32.26539887 254.02669907 35.96283436 C254.02641719 38.60349092 254.02653083 41.24414469 254.02714157 43.88480091 C254.02766669 49.58260154 254.02452111 55.28039075 254.01890373 60.97818851 C254.01078716 69.21631326 254.00817335 77.45443247 254.00691574 85.69256078 C254.00472547 99.05739469 253.99806605 112.42222251 253.98861313 125.78705311 C253.97943837 138.77207884 253.97235785 151.75710292 253.96810532 164.74213123 C253.96771123 165.94211529 253.96771123 165.94211529 253.96730918 167.16634144 C253.96600418 171.17953126 253.96474046 175.19272108 253.96349728 179.20591092 C253.95312544 212.51535206 253.9355078 245.82478582 253.91317368 279.13422108 C253.25317368 279.13422108 252.59317368 279.13422108 251.91317368 279.13422108 C251.80702209 279.72817016 251.70087049 280.32211924 251.59150219 280.93406677 C250.35107469 284.95738563 247.50838358 287.11701305 243.91317368 289.13422108 C240.12091775 289.97918422 236.43848096 289.94531142 232.56527328 289.89471912 C231.44247467 289.90362675 230.31967606 289.91253437 229.16285324 289.92171192 C225.46314464 289.94296735 221.76518279 289.92070125 218.06551743 289.89593983 C215.48914538 289.89744249 212.91277379 289.90087311 210.33640671 289.90614796 C204.94206569 289.91047747 199.54836955 289.89428154 194.15414047 289.861516 C187.92755926 289.82400613 181.70192346 289.82581158 175.47529215 289.84855717 C169.47104881 289.86954078 163.46724804 289.86211889 157.46298027 289.84223843 C154.91410128 289.8363905 152.36519551 289.83768815 149.81632423 289.84626293 C146.25417084 289.85425654 142.69365845 289.8300055 139.13167953 289.79706287 C138.07956284 289.80561298 137.02744614 289.81416309 135.94344711 289.8229723 C127.96252484 289.69562571 127.96252484 289.69562571 124.46201706 287.09279346 C117.91830811 279.49717706 117.33926691 273.17962583 117.45907211 263.2924242 C117.45848801 262.02329182 117.4579039 260.75415943 117.45730209 259.44656849 C117.45616055 255.98824429 117.47957778 252.53048189 117.50759792 249.07228756 C117.53270587 245.45017993 117.53496094 241.82805757 117.53969955 238.20587635 C117.5521019 231.3565713 117.58488597 224.50752348 117.62509751 217.65833139 C117.66990099 209.85663787 117.69182375 202.05493168 117.71187925 194.2531414 C117.75362138 178.21335103 117.82391955 162.17381895 117.91317368 146.13422108 C117.30633208 146.13698646 116.69949049 146.13975183 116.07425976 146.14260101 C101.29248538 146.20892168 86.51072542 146.25853123 71.72883892 146.28965759 C64.58034985 146.30511108 57.43196023 146.32617142 50.283535 146.36053944 C44.05126091 146.39048846 37.81905886 146.40980712 31.5867148 146.41648656 C28.28824023 146.42038956 24.9900192 146.43111553 21.69159889 146.45141125 C18.00483489 146.47319391 14.31849755 146.47618756 10.63167953 146.47479725 C9.54410858 146.48558308 8.45653763 146.4963689 7.33600998 146.50748158 C-0.09264465 146.47717639 -5.01859011 145.65699308 -10.89932632 140.82172108 C-15.84458524 134.74611726 -15.3836312 128.12655529 -15.37735367 120.65619373 C-15.3874295 118.93314266 -15.3874295 118.93314266 -15.39770889 117.17528248 C-15.41668651 113.38290536 -15.4206129 109.59070521 -15.42276382 105.79828358 C-15.42919149 103.15801388 -15.43591983 100.51774489 -15.44293594 97.87747669 C-15.4557095 92.34455687 -15.45870257 86.8116849 -15.45743179 81.27875233 C-15.45623065 74.89731474 -15.47733252 68.5162155 -15.50891912 62.1348635 C-15.53829295 55.97963285 -15.54540603 49.82456376 -15.54421234 43.6692667 C-15.54657017 41.05782533 -15.55540387 38.44638137 -15.57087708 35.83498478 C-15.59050718 32.18005121 -15.58470978 28.52598551 -15.57266617 24.87103748 C-15.58390518 23.79648808 -15.5951442 22.72193867 -15.60672379 21.61482716 C-15.55387691 15.29252004 -14.79658774 10.37929311 -11.08682632 5.13422108 C-7.42003951 1.72934761 -4.97121952 0.0119137 0 0 Z " fill="#AC9CD0" transform="translate(703.0868263244629,241.86577892303467)"/>
<path d="M0 0 C0.33 0.99 0.66 1.98 1 3 C-0.32 4.32 -1.64 5.64 -3 7 C-3.99 6.67 -4.98 6.34 -6 6 C-4.02 4.02 -2.04 2.04 0 0 Z " fill="#B6A8D5" transform="translate(539,714)"/>
</svg>
